<?xml version="1.0" encoding="utf-8"?>
<!-- Svg Vector Icons : http://www.onlinewebfonts.com/icon -->
<!DOCTYPE svg PUBLIC "-//W3C//DTD SVG 1.1//EN" "http://www.w3.org/Graphics/SVG/1.1/DTD/svg11.dtd">
<svg version="1.1" xmlns="http://www.w3.org/2000/svg" xmlns:xlink="http://www.w3.org/1999/xlink" x="0px" y="0px" viewBox="0 0 1000 1000" enable-background="new 0 0 1000 1000" xml:space="preserve">
<metadata> Svg Vector Icons : http://www.onlinewebfonts.com/icon </metadata>
<g><g transform="translate(0.000000,511.000000) scale(0.100000,-0.100000)"><path d="M4512.3,4986.7c-1077.8-104.4-2113.8-584.5-2914.9-1354.4C905.8,2966.9,410,2077,209.1,1142.8C-213.7-850.9,613.6-2865.6,2325.5-3995.5c887.3-584.6,1996.3-869,3045.4-777.7c662.9,54.8,1192.6,198.3,1756.3,472.3C8142.3-3810.3,8919.9-3030,9410.5-2017.5c749,1544.9,631.5,3382.1-305.3,4801.7c-508.9,772.4-1184.7,1362.2-2006.8,1751C6294.7,4918.9,5402.2,5072.9,4512.3,4986.7z M4791.5,4128.2v-469.7h208.8h208.8v472.3v472.3l190.5-18.3C7375.1,4399.6,9013.9,2933,9394.9,1012.3c36.5-174.9,73.1-401.9,80.9-503.7l18.3-190.5h-472.4h-472.3V148.5v-167L8338,70.2c-234.9,99.2-378.4,198.3-420.2,287.1c-20.9,49.6-13,75.7,62.6,172.2c240.1,315.8,381,884.7,307.9,1239.6c-88.7,422.7-310.5,615.9-717.6,621.1c-180.1,2.6-229.6-7.8-360.1-73.1c-271.4-130.5-394.1-381-391.4-785.5c2.6-360.1,112.2-709.8,310.5-986.4c78.3-109.6,88.7-138.3,67.9-187.9c-44.4-96.6-190.5-190.5-506.3-323.6c-164.4-70.5-344.4-156.6-401.9-193.1c-206.2-130.5-349.7-336.6-349.7-501v-65.2h1618h1617.9v73.1c0,138.3-125.3,336.7-281.8,448.9L8750.3-99.4h370.6h373.2l-18.3-187.9C9311.4-2054,8131.8-3554.5,6451.2-4141.7c-255.7-91.3-759.4-198.3-1051.7-224.4l-190.5-18.3v472.4v472.3h-208.8h-208.8V-3912v-472.4l-187.9,18.3C2625.6-4180.8,986.7-2714.2,605.7-793.6c-36.5,174.9-73.1,401.9-80.9,506.3L506.6-99.4h472.3h472.3v208.8v208.8H978.9H506.6l15.7,177.5C684,2100.5,1607.8,3447.1,3030.1,4143.8c503.6,245.3,1169.1,425.4,1678,448.8l83.5,5.2V4128.2z"/><path d="M2455.9,2382.4c-305.3-86.1-461.9-263.6-535-613.3c-73.1-354.9,67.9-923.8,307.9-1239.6c75.7-96.6,83.5-122.7,62.6-172.2c-44.4-99.2-190.5-190.5-535-336.6c-409.7-174.9-566.3-284.4-655-464.5c-36.5-75.7-67.9-169.6-67.9-208.8v-73.1h1618h1618v65.2c0,161.8-143.5,370.6-341.9,495.8c-52.2,33.9-232.3,120-401.9,193.1c-326.2,140.9-469.7,232.3-514.1,328.8c-20.9,49.6-10.4,78.3,67.9,187.9c349.7,485.4,417.5,1223.9,146.1,1594.5C3087.5,2332.8,2706.5,2452.8,2455.9,2382.4z"/><path d="M4726.3,2121.4c-344.5-93.9-581.9-349.7-665.4-722.9c-36.5-159.2-36.5-576.7,0-767.2c62.6-334,214-691.6,396.7-936.9c104.4-138.3,104.4-140.9,65.2-224.4c-60-122.7-227-229.6-652.4-407.1c-441-185.3-563.7-255.7-730.7-412.3c-151.4-140.9-224.4-274-245.3-448.9l-15.6-127.9h2121.6h2121.6l-15.6,127.9c-20.9,174.8-94,307.9-245.3,448.9c-167,156.6-289.7,227-730.7,412.3c-425.4,177.5-592.4,284.5-652.4,407.1c-41.7,88.7-41.7,88.7,54.8,214c261,336.6,433.2,866.4,433.2,1336.1c0,151.4-13,328.8-28.7,391.4c-67.9,294.9-266.2,550.6-514.1,660.2C5290,2129.2,4869.8,2160.5,4726.3,2121.4z"/></g></g>
</svg>